<?xml version="1.0" encoding="utf-8"?>
<!-- Generator: Adobe Illustrator 22.1.0, SVG Export Plug-In . SVG Version: 6.00 Build 0)  -->
<svg version="1.1" id="Layer_1" xmlns="http://www.w3.org/2000/svg" xmlns:xlink="http://www.w3.org/1999/xlink" x="0px" y="0px"
	 viewBox="0 0 899.4 404.2" style="enable-background:new 0 0 899.4 404.2;" xml:space="preserve">
<style type="text/css">
	.st0{fill:#FFCA00;}
	.st1{fill:#0082FF;}
</style>
<title>ZIQZAQFINALLast</title>
<ellipse transform="matrix(0.9871 -0.1602 0.1602 0.9871 -0.8653 30.9277)" class="st0" cx="191.3" cy="20.8" rx="7" ry="7"/>
<path class="st1" d="M206,6.2c-8.2-8.2-21.6-8.2-29.8,0c0,0,0,0,0,0c-7.4,7.4-8.3,21.4-2,29.8l16.9,24.3L208,35.9
	C214.3,27.5,213.5,13.6,206,6.2z M191.3,27.8c-3.9,0-7-3.1-7-7s3.1-7,7-7s7,3.1,7,7C198.3,24.7,195.2,27.8,191.3,27.8L191.3,27.8z"
	/>
<path class="st1" d="M100.4,255l-12.7-13.1l-6.3-6.6l-1.6-1.6l-0.8-0.8l-0.4-0.4c-0.2-0.3-0.5-0.5-0.7-0.8
	c-3.5-4.4-2.7-10.8,1.7-14.3c0,0,0,0,0,0c0.3-0.2,0.5-0.4,0.8-0.6l0.4-0.3l0.3-0.2l1-0.5l2-1.1l8-4.4l15.9-8.8L235.6,131l31.9-17.6
	l2-1.1l0.5-0.3l0.3-0.2c0.1-0.1,0.3-0.3,0.4-0.4c0.2-0.4,0.2-0.8,0.2-1.1c0-0.2-0.1-0.4-0.3-0.5c-0.1-0.2-0.3-0.3-0.5-0.4l-7.7-4.8
	l-15.5-9.6l-55.8-34.6l-17,1.5c-3.2,0-5.8,2.6-5.8,5.8c0,2,1,3.9,2.7,4.9l52.5,35.1c1.4,0.8,1.8,2.6,0.9,4c-0.3,0.5-0.7,0.9-1.3,1.1
	L9.8,210.3l-0.1,0.1l-0.1,0.1c-8.3,4-11.8,14.1-7.8,22.4c0.2,0.4,0.4,0.9,0.7,1.3l93,157.8c3,5.1,8.5,8.2,14.5,8.2h130.1l-89-92.6
	L100.4,255z"/>
<path class="st1" d="M390.3,368.6L160.8,229c-2.7-1.7-3.6-5.2-2-8c0.5-0.8,1.2-1.5,2-2l153.4-92l0.2-0.1l0.2-0.1
	c4-2.5,6.7-6.5,7.5-11.1c1.5-8.1-3.1-16-10.9-18.8l-90.4-35.3c-4.7-1.8-9.7-2.8-14.8-2.8l-14.8,1.3l56.4,33l15.7,9.2l7.9,4.6
	c2,1.1,2.8,3.7,1.7,5.8c-0.3,0.5-0.6,0.9-1.1,1.3c-0.2,0.2-0.4,0.3-0.7,0.4l-0.5,0.3l-2,1.1l-31.4,18.5L112,208.3l-15.7,9.2
	l-7.8,4.6l-2,1.2l-1,0.6l-0.2,0.1l-0.1,0c0,0-0.1,0-0.1,0.1c-0.3,0.3-0.5,0.6-0.5,1c0,0.4,0.1,0.7,0.3,1l2.9,2.9l6.5,6.4l13,12.8
	l51.9,51.1l102.4,100.8h120.7c7.3,0.1,13.8-4.7,16-11.6C400.5,381.5,396.6,372.4,390.3,368.6z"/>
<path class="st0" d="M107.3,248.1l-13-12.8l-6.5-6.4l-2.9-2.9c-0.2-0.3-0.4-0.6-0.3-1c0-0.4,0.2-0.7,0.5-1c0,0,0.1-0.1,0.1-0.1
	l0.1,0l0.2-0.1l1-0.6l2-1.2l7.8-4.6l15.7-9.2l125.5-73.9l31.4-18.5l2-1.1l0.5-0.3c0.2-0.1,0.4-0.3,0.7-0.4c0.4-0.4,0.8-0.8,1.1-1.3
	c1.1-2.1,0.3-4.6-1.7-5.8l-7.9-4.6l-15.8-9.1l-56.4-32.9H191l55.7,34.6l15.5,9.6l7.7,4.8c0.2,0.1,0.4,0.3,0.5,0.4
	c0.1,0.2,0.2,0.3,0.3,0.5c0.1,0.4,0,0.8-0.2,1.1c-0.1,0.2-0.2,0.3-0.4,0.4l-0.3,0.2l-0.5,0.3l-2,1.1L235.5,131l-127.4,70.5
	l-15.9,8.8l-8,4.4l-2,1.1l-1,0.5l-0.3,0.2l-0.4,0.3c-0.3,0.2-0.5,0.4-0.8,0.6c-4.4,3.5-5.2,9.9-1.7,14.3c0,0,0,0,0,0
	c0.2,0.3,0.4,0.5,0.7,0.8l0.4,0.4l0.8,0.8l1.6,1.6l6.3,6.6l12.6,13.1l50.5,52.5l89,92.6h21.8L159.2,299.2L107.3,248.1z"/>
<path class="st1" d="M521,78.8V67.6c0-5.7-4.6-10.3-10.3-10.3H410c-5.7,0-10.3,4.6-10.3,10.3v23.3c0,5.7,4.6,10.3,10.3,10.3
	c0,0,0,0,0,0h42.6l-55.9,78.4c-1.3,1.8-1.9,3.8-1.9,6v9.3c0,5.7,4.6,10.3,10.3,10.3c0,0,0,0,0,0h106.1c5.7,0,10.3-4.6,10.3-10.3
	c0,0,0,0,0,0v-25.8c0-5.7-4.6-10.3-10.3-10.3c0,0,0,0,0,0h-38.8c-1.9,0-3.4-1.5-3.4-3.4c0-0.7,0.2-1.4,0.6-2L519,84.8
	C520.3,83.1,521,81,521,78.8z"/>
<path class="st1" d="M531.1,46c5,4.3,11.4,6.6,18,6.6c13.2,0,26.5-9,26.5-26.3S562.2,0,549.1,0s-26.5,9-26.5,26.3
	C522.6,36.4,527.2,42.6,531.1,46z"/>
<path class="st1" d="M535.9,56.7h26.3c5.7,0,10.3,4.6,10.3,10.3v127.9c0,5.7-4.6,10.3-10.3,10.3h-26.3c-5.7,0-10.3-4.6-10.3-10.3V67
	C525.6,61.3,530.2,56.7,535.9,56.7z"/>
<path class="st1" d="M572.1,273.7v-11.3c0-5.7-4.6-10.3-10.3-10.3c0,0,0,0,0,0H461.1c-5.7,0-10.3,4.6-10.3,10.3v23.4
	c0,5.7,4.6,10.3,10.3,10.3c0,0,0,0,0,0h42.6l-55.9,78.4c-1.3,1.7-1.9,3.8-1.9,6v9.3c0,5.7,4.6,10.3,10.3,10.3h106.1
	c5.7,0,10.3-4.6,10.4-10.3c0,0,0,0,0,0V364c0-5.7-4.6-10.3-10.3-10.3h-38.8c-1.9,0-3.4-1.5-3.4-3.4c0-0.7,0.2-1.4,0.6-2l49.4-68.5
	C571.4,278,572.1,275.9,572.1,273.7z"/>
<path class="st0" d="M656.7,292.3c-19.7,0-32.9,13.5-32.9,33.7c0,20.3,13.2,34,32.9,34c22.2,0,32.3-17.5,32.3-33.8
	S678.9,292.3,656.7,292.3z"/>
<path class="st1" d="M726,252.1h-26.3c-4.9,0-8.9,3.8-9.2,8.6l0,0c-9.8-7.5-22.9-11.9-36.8-11.9c-22.2,0-42.1,7.2-55.8,20.8
	s-21.1,33.2-21.1,56.3c0,24,7.3,44.1,21.3,57.9c13.4,13.3,32.1,20.3,54.2,20.3h0.7c12.2-0.2,27.1-4.5,38-13.3l0,0
	c0.4,5.2,4.8,9.2,10,9.2h25c5.7,0,10.3-4.6,10.3-10.3V262.5C736.3,256.8,731.7,252.1,726,252.1C726,252.1,726,252.1,726,252.1z
	 M656.7,360c-19.7,0-32.9-13.7-32.9-34c0-20.2,13.2-33.7,32.9-33.7c22.2,0,32.3,17.5,32.3,33.8S678.9,360,656.7,360z"/>
<path class="st1" d="M896.3,367.4l-8.8-8.8c10.3-22.8,9-49.1-3.4-70.7c-6.7-11.7-16.4-21.4-28.1-28.1c-23.9-13.8-53.4-13.8-77.3,0
	c-23.9,13.8-38.5,39.3-38.4,66.9c-0.1,13.6,3.5,26.9,10.3,38.7c6.7,11.6,16.4,21.3,28.1,28c23.9,13.8,53.3,13.8,77.2,0.1l7.2,7.3
	c4,4,10.6,4,14.6,0l18.6-18.6C900.4,378,900.4,371.5,896.3,367.4C896.3,367.4,896.3,367.4,896.3,367.4z M817.7,360.2
	c-18.7,0-33.8-15.1-33.8-33.8s15.1-33.8,33.8-33.8c18.7,0,33.8,15.1,33.8,33.8c0,0,0,0,0,0C851.5,345.1,836.4,360.2,817.7,360.2z"/>
<circle class="st0" cx="817.7" cy="326.4" r="33.8"/>
<path class="st1" d="M732.7,172.2l-8.8-8.8c10.3-22.8,9-49.1-3.4-70.8c-6.7-11.7-16.4-21.4-28.1-28.1c-23.9-13.8-53.4-13.8-77.3,0
	c-23.9,13.8-38.5,39.3-38.4,66.9c-0.1,13.6,3.5,26.9,10.3,38.6c6.8,11.6,16.4,21.3,28.1,28c23.9,13.8,53.3,13.8,77.2,0.1l7.2,7.2
	c4,4,10.6,4,14.6,0c0,0,0,0,0,0l18.6-18.6C736.7,182.8,736.7,176.3,732.7,172.2C732.7,172.2,732.7,172.2,732.7,172.2z M654,165
	c-18.7,0-33.8-15.1-33.8-33.8s15.1-33.8,33.8-33.8c18.7,0,33.8,15.1,33.8,33.8v0C687.8,149.9,672.7,165,654,165z"/>
<circle class="st0" cx="654" cy="131.2" r="33.8"/>
</svg>
