<svg xmlns="http://www.w3.org/2000/svg" width="20.506" height="20.5" viewBox="0 0 20.506 20.5">
  <path id="Path_258" data-name="Path 258" d="M99.585,2.652,87.523,14.714a.759.759,0,0,0-.2.347l-1.035,3.987a.761.761,0,0,0,.927.927L91.2,18.94a.761.761,0,0,0,.347-.2L103.612,6.68h0l2.428-2.428a.76.76,0,0,0,0-1.075L103.09.223a.76.76,0,0,0-1.076,0L99.586,2.651h0ZM90.621,17.52l-2.534.658.658-2.534L100.123,4.265,102,6.141ZM102.552,1.836l1.876,1.876-1.353,1.353L101.2,3.189Z" transform="translate(-86.009 0.25)" fill="#bed9d4" stroke="#0082ff" stroke-width="0.5"/>
</svg>
