<svg xmlns="http://www.w3.org/2000/svg" width="33.383" height="43.826" viewBox="0 0 33.383 43.826"><g transform="translate(-61)"><g transform="translate(61)"><path d="M77.692,0A16.761,16.761,0,0,0,63.627,25.769h0l6.589,10.353h-.229a1.284,1.284,0,1,0,0,2.568h1.284v1.284a3.856,3.856,0,0,0,3.852,3.852h5.136a3.856,3.856,0,0,0,3.852-3.852V38.69H85.4a1.284,1.284,0,1,0,0-2.568h-.229L91.756,25.77h0A16.761,16.761,0,0,0,77.692,0Zm0,2.568c1.519,0,3.086,1.4,4.3,3.842a23.9,23.9,0,0,1,2.123,10.367,23.9,23.9,0,0,1-2.123,10.367c-1.212,2.442-2.778,3.842-4.3,3.842s-3.086-1.4-4.3-3.842a23.9,23.9,0,0,1-2.123-10.367A23.9,23.9,0,0,1,73.394,6.41C74.606,3.968,76.172,2.568,77.692,2.568Zm-11.9,21.819a14.074,14.074,0,0,1-2.223-7.61A14.233,14.233,0,0,1,71.917,3.811a15.112,15.112,0,0,0-.823,1.458A26.493,26.493,0,0,0,68.7,16.777a26.493,26.493,0,0,0,2.39,11.508,15.135,15.135,0,0,0,.812,1.44A14.361,14.361,0,0,1,65.791,24.387ZM70.6,31.94A16.518,16.518,0,0,0,76.408,33.5v2.621H73.26Zm10.945,8.034a1.285,1.285,0,0,1-1.284,1.284H75.124a1.285,1.285,0,0,1-1.284-1.284V38.69h7.7Zm.579-3.852H78.976V33.5a16.518,16.518,0,0,0,5.809-1.561Zm7.469-11.735a14.362,14.362,0,0,1-6.115,5.338,15.112,15.112,0,0,0,.812-1.44,26.491,26.491,0,0,0,2.39-11.508,26.493,26.493,0,0,0-2.39-11.508,15.115,15.115,0,0,0-.823-1.458,14.233,14.233,0,0,1,8.349,12.967A14.074,14.074,0,0,1,89.592,24.387Z" transform="translate(-61)" fill="#fff"/></g></g></svg>