<svg xmlns="http://www.w3.org/2000/svg" width="17.262" height="22.284" viewBox="0 0 17.262 22.284"><g transform="translate(-31.549 0.25)"><path d="M94.563,1.652,87.048,9.167a.473.473,0,0,0-.124.216l-.645,2.484a.474.474,0,0,0,.578.578l2.484-.645a.474.474,0,0,0,.216-.124l7.515-7.515h0l1.513-1.513a.474.474,0,0,0,0-.67L96.747.139a.474.474,0,0,0-.67,0L94.564,1.652h0Zm-5.585,9.263-1.579.41.41-1.579L94.9,2.657l1.169,1.169Zm7.433-9.771,1.169,1.169-.843.843L95.569,1.987Z" transform="translate(-50.164)" fill="#0082ff" stroke="#0082ff" stroke-width="0.5"/><path d="M48.087,25.782a.474.474,0,0,0-.474.474V41.483H32.747V23.365h8.771a.474.474,0,0,0,0-.948H32.273a.474.474,0,0,0-.474.474V41.957a.474.474,0,0,0,.474.474H48.087a.474.474,0,0,0,.474-.474v-15.7A.474.474,0,0,0,48.087,25.782Z" transform="translate(0 -20.647)" fill="#0082ff" stroke="#0082ff" stroke-width="0.5"/></g></svg>