<svg xmlns="http://www.w3.org/2000/svg" width="22" height="47.826" viewBox="0 0 22 47.826"><g transform="translate(-27)"><g transform="translate(27)"><path d="M43.817,0a4.472,4.472,0,0,1,4.8,4.682,6.288,6.288,0,0,1-6.4,6c-3.034,0-4.8-1.794-4.72-4.757A6.151,6.151,0,0,1,43.817,0ZM33.955,47.826c-2.529,0-4.383-1.56-2.613-8.425l2.9-12.175c.506-1.95.588-2.729,0-2.729a19.1,19.1,0,0,0-5.983,2.673L27,25.064c6.152-5.225,13.23-8.29,16.263-8.29,2.528,0,2.95,3.042,1.686,7.723l-3.323,12.8c-.59,2.262-.336,3.041.252,3.041a13.026,13.026,0,0,0,5.689-2.889L49,39.4C43.016,45.483,36.484,47.826,33.955,47.826Z" transform="translate(-27)" fill="#fff"/></g></g></svg>