<svg xmlns="http://www.w3.org/2000/svg" width="10.979" height="9.935" viewBox="0 0 10.979 9.935"><g transform="translate(0.5 0.5)"><g transform="translate(0 0)"><path d="M125.312,25.092h-7.041a.241.241,0,0,0,0,.483h6.8v7.969h-6.8a.241.241,0,0,0,0,.483h7.041a.241.241,0,0,0,.241-.241V25.333A.241.241,0,0,0,125.312,25.092Z" transform="translate(-115.575 -25.092)" stroke="#000" stroke-width="1"/><path d="M3.677,166.872a.241.241,0,1,0,.341.341l1.489-1.489a.241.241,0,0,0,0-.341l-1.489-1.489a.241.241,0,0,0-.341.341l1.077,1.077H.241a.241.241,0,1,0,0,.483H4.754Z" transform="translate(0 -160.937)" stroke="#000" stroke-width="1"/></g></g></svg>