<svg xmlns="http://www.w3.org/2000/svg" width="23.85" height="23.774" viewBox="0 0 23.85 23.774"><g transform="translate(0.5 0.5)"><g transform="translate(0 0)"><path d="M11.387,21.726H2.847a.949.949,0,0,1-.949-.949V3.7a.949.949,0,0,1,.949-.949h8.54a.949.949,0,0,0,0-1.9H2.847A2.85,2.85,0,0,0,0,3.7v17.08a2.85,2.85,0,0,0,2.847,2.847h8.54a.949.949,0,1,0,0-1.9Z" transform="translate(0 -0.85)" fill="#5d5d5d" stroke="#5d5d5d" stroke-width="1"/></g><g transform="translate(7.591 4.745)"><path d="M185.076,113.131l-5.769-5.693a.949.949,0,0,0-1.332,1.351l4.123,4.069H171.049a.949.949,0,1,0,0,1.9H182.1l-4.123,4.069a.949.949,0,1,0,1.332,1.351l5.769-5.693a.948.948,0,0,0,0-1.351Z" transform="translate(-170.1 -107.165)" fill="#5d5d5d" stroke="#5d5d5d" stroke-width="1"/></g></g></svg>