<svg xmlns="http://www.w3.org/2000/svg" width="34" height="22.878" viewBox="0 0 34 22.878"><path d="M32.662,50.943a.951.951,0,0,1-.025.283l-2.1,8.389a.954.954,0,0,1-.92.722L17.037,60.4H4.449a.953.953,0,0,1-.925-.723l-2.1-8.421a.952.952,0,0,1-.025-.291A2,2,0,1,1,3.273,50.6L5.9,53.247a3.564,3.564,0,0,0,5.371-.363l4.315-5.718a2,2,0,1,1,2.861-.034l0,0,4.284,5.733A3.576,3.576,0,0,0,25.585,54.3,3.536,3.536,0,0,0,28.1,53.257l2.642-2.642a2,2,0,1,1,1.918.328ZM30.335,63.387a.953.953,0,0,0-.953-.953H4.724a.953.953,0,0,0-.953.953v2.288a.953.953,0,0,0,.953.953H29.382a.953.953,0,0,0,.953-.953Z" transform="translate(0 -43.75)" fill="#707070"/></svg>