<svg xmlns="http://www.w3.org/2000/svg" width="113.272" height="113.272" viewBox="0 0 113.272 113.272"><g transform="translate(0.15 0.15)"><path d="M96.428,16.544A56.486,56.486,0,0,0,16.544,96.428,56.486,56.486,0,1,0,96.428,16.544ZM56.486,106.353a49.867,49.867,0,1,1,0-99.733A50.4,50.4,0,0,1,68.023,7.967a49.87,49.87,0,0,1-11.537,98.386Z" fill="#e6e6e6" stroke="#cbcbcb" stroke-width="0.3"/><g transform="translate(28.53 37.393)"><path d="M184.243,170.436a3.31,3.31,0,0,0-4.68,0l-29.227,29.227-15.385-15.385a3.31,3.31,0,1,0-4.681,4.681L148,206.684a3.31,3.31,0,0,0,4.68,0l31.567-31.567A3.31,3.31,0,0,0,184.243,170.436Z" transform="translate(-129.3 -169.467)" fill="#e6e6e6" stroke="#cbcbcb" stroke-width="0.3"/></g></g></svg>