<svg xmlns="http://www.w3.org/2000/svg" width="47.948" height="47.948" viewBox="0 0 47.948 47.948"><path d="M47.865,4.747a.765.765,0,0,0-.8-.41l-4.085.63.63-4.085a.765.765,0,0,0-1.3-.658L37.571,4.966a.765.765,0,0,0-.215.424l-.751,4.87-2.715,2.715a20.134,20.134,0,1,0,2.623,2.957.765.765,0,1,0-1.239.9,18.658,18.658,0,1,1-2.468-2.773l-3.5,3.5a13.677,13.677,0,1,0,2.574,3.091.765.765,0,0,0-1.307.8,12.174,12.174,0,1,1-2.351-2.8l-3.506,3.506A7.217,7.217,0,1,0,27.1,25.686a.765.765,0,0,0-1.465.44,5.706,5.706,0,1,1-5.464-4.057,5.663,5.663,0,0,1,3.457,1.166l-4,4a.765.765,0,0,0,1.082,1.082L34.44,14.59l3.247-3.247,4.87-.751a.765.765,0,0,0,.424-.215l4.742-4.742a.765.765,0,0,0,.142-.887ZM38.83,5.871,41.742,2.96l-.394,2.558L38.436,8.43Zm3.246,3.246s-2.647,1.024-2.558.394S41.062,7.427,42.43,6.6s2.647-1.024,2.558-.394S42.076,9.118,42.076,9.118Z" transform="translate(0 0)" fill="#fff"/></svg>